External Loads File
version=1
nRows=92
nColumns=13
Range=5.000000e-03-10 seconds
endheader
time 	forceRightX 	forceRightY 	forceRightZ 	pointRightX 	pointRightY 	pointRightZ 	forceLeftX 	forceLeftY 	forceLeftZ 	pointLeftX 	pointLeftY 	pointLeftZ 		
2.505000 -115.520051 -120.339094 -0.000000 0.190386 0.475759 -0.127131 137.484097 640.840592 -0.000000 0.209129 0.143598 -0.363190
2.510000 -115.567256 -114.645084 -0.000000 0.198277 0.478123 -0.127137 146.102978 604.417924 -0.000000 0.200921 0.142045 -0.362918
2.515000 -114.769081 -107.111724 -0.000000 0.206205 0.479586 -0.127034 153.510535 561.149517 -0.000000 0.192715 0.147484 -0.362649
2.520000 -113.428375 -98.003465 -0.000000 0.214055 0.481069 -0.126894 159.050139 511.081223 -0.000000 0.184397 0.146960 -0.362412
2.525000 -111.864537 -87.563017 -0.000000 0.222069 0.482102 -0.126653 161.979700 454.626350 -0.000000 0.176224 0.147095 -0.362119
2.530000 -110.387401 -75.816745 -0.000000 0.230176 0.481898 -0.126463 161.987139 392.595793 -0.000000 0.168063 0.147603 -0.361897
2.535000 -109.007634 -62.826704 -0.000000 0.238333 0.481846 -0.126493 158.361556 326.620031 -0.000000 0.160005 0.148824 -0.361573
2.540000 -107.590769 -48.648715 -0.000000 0.246128 0.480857 -0.125948 150.732473 258.758928 -0.000000 0.152194 0.150415 -0.361405
2.545000 -106.097910 -33.066314 -0.000000 0.253557 0.478445 -0.125636 139.684965 190.863899 -0.000000 0.144674 0.152604 -0.361017
2.550000 -104.453487 -15.976377 -0.000000 0.260590 0.476525 -0.125232 125.576390 125.097554 -0.000000 0.137415 0.155284 -0.360781
2.555000 -102.767414 3.244941 -0.000000 0.267252 0.473943 -0.124857 109.602719 63.020144 -0.000000 0.130299 0.158371 -0.360407
2.560000 -101.178901 25.231614 -0.000000 0.273469 0.470957 -0.124310 92.668973 6.111636 -0.000000 0.123277 0.161820 -0.359912
2.565000 -99.897395 50.907845 -0.000000 0.279174 0.466681 -0.123856 75.562915 -44.637661 -0.000000 0.116421 0.165764 -0.359338
2.570000 -99.357350 80.948812 -0.000000 0.284501 0.462651 -0.123470 58.934086 -88.269106 -0.000000 0.109826 0.170067 -0.358604
2.575000 -99.947647 116.240043 -0.000000 0.289343 0.458091 -0.122986 43.270125 -124.286407 -0.000000 0.103477 0.174748 -0.358423
2.580000 -101.890589 157.418147 -0.000000 0.293987 0.452908 -0.122244 28.920417 -152.334621 -0.000000 0.097447 0.179822 -0.357942
2.585000 -105.876746 204.346061 -0.000000 0.298026 0.448270 -0.121632 16.867859 -172.194608 -0.000000 0.091602 0.185307 -0.357399
2.590000 -111.078716 257.151896 -0.000000 0.301449 0.441847 -0.120898 6.925768 -184.105221 -0.000000 0.085661 0.191219 -0.357002
2.595000 -117.663367 314.654913 -0.000000 0.305029 0.435497 -0.120552 -0.018201 -188.453800 -0.000000 0.079776 0.197576 -0.356596
2.600000 -125.480615 375.219259 -0.000000 0.308092 0.428819 -0.120006 -3.471791 -186.017300 -0.000000 0.073924 0.204579 -0.356112
2.605000 -132.854928 437.114985 -0.000000 0.311912 0.421685 -0.120063 -3.819951 -177.826461 -0.000000 0.068164 0.212176 -0.355610
2.610000 -140.239882 497.505525 -0.000000 0.315019 0.413957 -0.119955 -0.608406 -165.090257 -0.000000 0.062535 0.220163 -0.355098
2.615000 -145.363646 554.262724 -0.000000 0.318482 0.405693 -0.119812 5.320756 -149.024510 -0.000000 0.057147 0.228858 -0.354600
2.620000 -149.036396 604.585940 -0.000000 0.321641 0.397094 -0.119716 13.987870 -130.735756 -0.000000 0.052110 0.237710 -0.354535
2.625000 -150.437831 646.631989 -0.000000 0.324510 0.388283 -0.119626 24.721139 -111.133267 -0.000000 0.047389 0.246902 -0.354188
2.630000 -149.482157 679.079199 -0.000000 0.327548 0.379149 -0.119052 36.974860 -90.916720 -0.000000 0.043433 0.256141 -0.354008
2.635000 -147.221449 701.204047 -0.000000 0.329832 0.369846 -0.119103 50.331360 -70.571901 -0.000000 0.039988 0.265307 -0.354080
2.640000 -142.976952 713.481794 -0.000000 0.332116 0.360397 -0.118894 64.216937 -50.634264 -0.000000 0.037098 0.274554 -0.354195
2.645000 -138.097736 716.632004 -0.000000 0.334083 0.351113 -0.119049 78.328717 -31.504207 -0.000000 0.034765 0.283851 -0.354436
2.650000 -131.241419 712.376508 -0.000000 0.335921 0.341529 -0.118946 92.208086 -13.870891 -0.000000 0.032955 0.293392 -0.354729
2.655000 -123.551482 702.234882 -0.000000 0.337296 0.331762 -0.118744 105.453903 1.842916 -0.000000 0.031798 0.302963 -0.354524
2.660000 -115.640368 688.005109 -0.000000 0.338035 0.322115 -0.118916 117.424119 15.311593 -0.000000 0.031153 0.312612 -0.354658
2.665000 -107.079776 671.700320 -0.000000 0.338381 0.312386 -0.118897 127.361043 26.226046 -0.000000 0.031271 0.322303 -0.354787
2.670000 -98.161256 655.058042 -0.000000 0.338186 0.302612 -0.118905 134.548415 34.533065 -0.000000 0.032293 0.331844 -0.354927
2.675000 -89.270560 639.482994 -0.000000 0.337753 0.293097 -0.118688 138.471427 40.250356 -0.000000 0.034036 0.341272 -0.355048
2.680000 -78.468282 626.280007 -0.000000 0.336240 0.283168 -0.118929 139.075562 42.816935 -0.000000 0.036495 0.350564 -0.355078
2.685000 -65.680804 616.025804 -0.000000 0.333911 0.273649 -0.118980 136.472787 41.974394 -0.000000 0.039876 0.360385 -0.355395
2.690000 -54.152011 608.605390 -0.000000 0.331533 0.264190 -0.118836 130.678655 38.183294 -0.000000 0.043938 0.368883 -0.355737
2.695000 -39.783169 604.310573 -0.000000 0.328474 0.254561 -0.118656 122.216745 30.336866 -0.000000 0.048767 0.377636 -0.356513
2.700000 -21.662382 602.653424 -0.000000 0.324800 0.244899 -0.118476 111.225107 18.245122 -0.000000 0.054290 0.387423 -0.356253
2.705000 -7.498481 602.797690 -0.000000 0.320617 0.235680 -0.118326 97.528305 3.403748 -0.000000 0.060508 0.394460 -0.356773
2.710000 8.883654 604.499409 -0.000000 0.315954 0.226699 -0.118225 81.319457 -15.173853 -0.000000 0.067403 0.402223 -0.357157
2.715000 25.775696 607.214511 -0.000000 0.310878 0.218024 -0.118050 62.380894 -36.872819 -0.000000 0.075454 0.409648 -0.358427
2.720000 40.182184 610.676124 -0.000000 0.305117 0.209581 -0.118467 40.732344 -61.032160 -0.000000 0.082893 0.416132 -0.357430
2.725000 54.181739 614.446557 -0.000000 0.299242 0.201494 -0.118081 16.221752 -87.369732 -0.000000 0.090927 0.422700 -0.357397
2.730000 68.297835 618.048674 -0.000000 0.292937 0.193771 -0.118048 -11.090016 -115.052626 -0.000000 0.099856 0.429080 -0.357869
2.735000 81.092024 621.168472 -0.000000 0.286441 0.186324 -0.117942 -40.395965 -143.032570 -0.000000 0.108779 0.435263 -0.358045
2.740000 94.514356 623.019581 -0.000000 0.279599 0.179051 -0.117843 -71.141768 -169.920620 -0.000000 0.118067 0.441953 -0.359184
2.745000 104.887118 623.529637 -0.000000 0.272448 0.172311 -0.117746 -100.948264 -194.652014 -0.000000 0.126647 0.447687 -0.359113
2.750000 117.199034 621.199595 -0.000000 0.264746 0.166559 -0.117993 -129.633193 -214.971797 -0.000000 0.135419 0.456057 -0.359239
2.755000 127.724935 615.924726 -0.000000 0.257507 0.160894 -0.117417 -154.340203 -230.110779 -0.000000 0.143732 0.465850 -0.359119
2.760000 135.393184 607.288696 -0.000000 0.249645 0.156023 -0.117358 -173.067526 -239.582842 -0.000000 0.152220 0.470919 -0.359011
2.765000 142.595816 594.178718 -0.000000 0.241591 0.151737 -0.117264 -185.711479 -242.390230 -0.000000 0.160565 0.476000 -0.359335
2.770000 149.040857 576.145185 -0.000000 0.233453 0.147872 -0.117296 -191.870924 -238.632929 -0.000000 0.168806 0.480851 -0.359659
2.775000 154.451093 552.933685 -0.000000 0.225256 0.144740 -0.117338 -191.804330 -228.918457 -0.000000 0.176966 0.485271 -0.359744
2.780000 159.221408 524.321207 -0.000000 0.216837 0.142558 -0.117451 -186.586803 -214.067704 -0.000000 0.185154 0.489532 -0.359906
2.785000 162.653447 490.612760 -0.000000 0.208639 0.139701 -0.117634 -177.223005 -195.630555 -0.000000 0.193367 0.493448 -0.360080
2.790000 165.063707 452.009983 -0.000000 0.200272 0.138174 -0.117851 -165.414549 -175.026026 -0.000000 0.201684 0.496834 -0.360334
2.795000 164.988918 409.592403 -0.000000 0.191904 0.137420 -0.117955 -152.337076 -154.356890 -0.000000 0.210083 0.517233 -0.360504
2.800000 164.034292 363.543734 -0.000000 0.183641 0.137013 -0.118000 -140.246507 -134.352600 -0.000000 0.218806 0.518285 -0.360792
2.805000 161.118513 315.298180 -0.000000 0.175583 0.137153 -0.118021 -129.988697 -116.280696 -0.000000 0.227146 0.517066 -0.361310
2.810000 155.774206 266.349810 -0.000000 0.167738 0.137732 -0.118038 -122.118433 -100.752755 -0.000000 0.235577 0.520492 -0.361833
2.815000 149.471884 217.243035 -0.000000 0.160265 0.138890 -0.117989 -117.382485 -87.112094 -0.000000 0.243575 0.513346 -0.361739
2.820000 144.024968 167.718341 -0.000000 0.153010 0.140181 -0.118065 -116.400035 -73.637771 -0.000000 0.251501 0.485218 -0.361914
2.825000 133.752816 123.889661 -0.000000 0.145998 0.142321 -0.117928 -116.238456 -63.508013 -0.000000 0.259299 0.483340 -0.362013
2.830000 123.148676 83.842113 -0.000000 0.139315 0.144915 -0.117970 -118.105389 -53.524756 -0.000000 0.266764 0.475795 -0.362123
2.835000 111.602451 50.173905 -0.000000 0.132994 0.147941 -0.117987 -120.836542 -44.548995 -0.000000 0.273897 0.477699 -0.362309
2.840000 100.975133 21.275587 -0.000000 0.126857 0.151159 -0.118064 -125.097521 -33.628828 -0.000000 0.280713 0.473865 -0.362579
2.845000 91.189829 -2.200289 -0.000000 0.120913 0.155068 -0.118173 -130.616420 -20.327056 -0.000000 0.287056 0.470283 -0.362661
2.850000 82.433695 -20.748594 -0.000000 0.115231 0.159082 -0.118154 -137.647288 -3.368522 -0.000000 0.292911 0.465299 -0.362800
2.855000 74.705062 -34.867985 -0.000000 0.109768 0.163721 -0.118227 -146.488644 18.169430 -0.000000 0.298273 0.459856 -0.362776
2.860000 67.913493 -45.161141 -0.000000 0.104496 0.168965 -0.118347 -157.414432 45.114610 -0.000000 0.303221 0.453849 -0.362905
2.865000 62.024930 -52.072715 -0.000000 0.099490 0.174758 -0.118534 -170.600347 77.788524 -0.000000 0.307523 0.447476 -0.362965
2.870000 56.939143 -56.118015 -0.000000 0.094679 0.180925 -0.118675 -185.882042 116.479488 -0.000000 0.311678 0.440749 -0.362780
2.875000 52.660796 -57.666147 -0.000000 0.090166 0.187758 -0.118758 -202.932937 160.802936 -0.000000 0.315137 0.433437 -0.362654
2.880000 49.226404 -57.086216 -0.000000 0.085903 0.194702 -0.118775 -221.300218 209.885554 -0.000000 0.318186 0.425573 -0.362724
2.885000 46.566516 -54.873542 -0.000000 0.081968 0.202154 -0.118693 -239.955936 262.829265 -0.000000 0.320934 0.416829 -0.362952
2.890000 44.739584 -51.453791 -0.000000 0.078371 0.209820 -0.118576 -258.213930 317.797762 -0.000000 0.323471 0.407492 -0.363405
2.895000 43.502572 -47.540923 -0.000000 0.074994 0.218320 -0.118543 -273.430625 374.106621 -0.000000 0.325769 0.396576 -0.363999
2.900000 43.069202 -43.400360 -0.000000 0.072131 0.227541 -0.118477 -286.128693 428.374387 -0.000000 0.327972 0.386165 -0.364394
2.905000 43.361745 -39.389693 -0.000000 0.069632 0.236587 -0.118447 -296.378136 478.041362 -0.000000 0.329862 0.376024 -0.364713
2.910000 44.020529 -35.965506 -0.000000 0.067562 0.245999 -0.118435 -302.209014 522.258934 -0.000000 0.331376 0.365610 -0.365041
2.915000 44.743454 -33.340042 -0.000000 0.065988 0.255727 -0.118578 -302.808550 559.963563 -0.000000 0.332631 0.354822 -0.365435
2.920000 45.324972 -31.439968 -0.000000 0.065119 0.265875 -0.119005 -299.533464 589.728671 -0.000000 0.333575 0.344484 -0.365583
2.925000 45.466181 -30.304681 -0.000000 0.064529 0.276086 -0.119276 -291.464646 612.181377 -0.000000 0.334244 0.333742 -0.365646
2.930000 45.082917 -29.747485 -0.000000 0.064581 0.286535 -0.119590 -280.303477 627.287948 -0.000000 0.334677 0.323254 -0.365328
2.935000 44.102916 -29.666365 -0.000000 0.065089 0.296986 -0.119962 -266.752629 636.009506 -0.000000 0.334527 0.312867 -0.365220
2.940000 42.476862 -30.062254 -0.000000 0.066180 0.307621 -0.120207 -250.628956 639.874339 -0.000000 0.333897 0.302561 -0.365012
2.945000 40.202098 -30.985600 -0.000000 0.067711 0.318303 -0.120410 -232.103782 640.295595 -0.000000 0.332885 0.292145 -0.365342
2.950000 37.260596 -32.537999 -0.000000 0.069737 0.329043 -0.120450 -211.563494 638.580445 -0.000000 0.331174 0.281671 -0.365079
2.955000 33.626301 -34.779776 -0.000000 0.072347 0.339803 -0.121002 -190.181116 635.648825 -0.000000 0.328975 0.271461 -0.365050
2.960000 28.349275 -38.421781 -0.000000 0.075288 0.350691 -0.121404 -154.016891 636.137553 -0.000000 0.326120 0.255316 -0.365037
